<svg width="26" height="22" fill="none" xmlns="http://www.w3.org/2000/svg"><path d="M15.5 12.25h-1.25V11a1.25 1.25 0 00-2.5 0v1.25H10.5a1.25 1.25 0 000 2.5h1.25V16a1.25 1.25 0 002.5 0v-1.25h1.25a1.25 1.25 0 000-2.5z" fill="#fff" fill-opacity=".38"/><path d="M22.375 4.812h-8.75L10.338.837a1.25 1.25 0 00-.963-.462h-5.75A3.088 3.088 0 00.5 3.412v15.175a3.087 3.087 0 003.125 3.038h18.75a3.088 3.088 0 003.125-3.038V7.85a3.088 3.088 0 00-3.125-3.038zM23 18.562a.574.574 0 01-.625.538H3.625A.575.575 0 013 18.562V3.412a.575.575 0 01.625-.537h5.162l3.25 3.975a1.25 1.25 0 00.963.462h9.375A.575.575 0 0123 7.85v10.713z" fill="#fff" fill-opacity=".38"/></svg>