<svg width="36" height="36" fill="none" xmlns="http://www.w3.org/2000/svg"><path d="M17.998 11.065a6.936 6.936 0 100 13.873 6.936 6.936 0 000-13.873zm0 11.44a4.506 4.506 0 110-9.01 4.506 4.506 0 010 9.01zm7.211-10.077a1.617 1.617 0 100-3.235 1.617 1.617 0 000 3.235z" fill="#fff" fill-opacity=".78"/><path d="M30.8 9.166a6.907 6.907 0 00-3.95-3.948 9.909 9.909 0 00-3.279-.63c-1.445-.063-1.902-.08-5.565-.08-3.663 0-4.133 0-5.565.08a9.83 9.83 0 00-3.276.63 6.9 6.9 0 00-3.95 3.948 9.877 9.877 0 00-.628 3.28c-.064 1.442-.084 1.9-.084 5.564 0 3.663 0 4.13.084 5.565a9.893 9.893 0 00.629 3.28 6.915 6.915 0 003.95 3.949 9.876 9.876 0 003.278.675c1.444.063 1.902.082 5.565.082 3.663 0 4.133 0 5.565-.082a9.92 9.92 0 003.279-.628 6.922 6.922 0 003.95-3.95 9.877 9.877 0 00.628-3.28c.064-1.442.084-1.9.084-5.564 0-3.665 0-4.13-.084-5.565a9.872 9.872 0 00-.632-3.326zm-1.828 14.298a7.566 7.566 0 01-.466 2.532 4.48 4.48 0 01-2.568 2.567 7.476 7.476 0 01-2.505.466c-1.425.066-1.827.083-5.481.083-3.657 0-4.03 0-5.483-.083a7.437 7.437 0 01-2.503-.466 4.477 4.477 0 01-2.578-2.567 7.62 7.62 0 01-.467-2.503c-.064-1.425-.08-1.827-.08-5.481 0-3.656 0-4.03.08-5.483.01-.864.167-1.72.467-2.53a4.48 4.48 0 012.578-2.568 7.515 7.515 0 012.504-.467c1.426-.064 1.826-.082 5.482-.082 3.655 0 4.03 0 5.481.082a7.44 7.44 0 012.505.467 4.487 4.487 0 012.568 2.568c.295.802.453 1.649.466 2.503.065 1.427.081 1.827.081 5.483 0 3.654 0 4.047-.064 5.48h-.017z" fill="#fff" fill-opacity=".78"/></svg>