<svg width="140" height="38" fill="none" xmlns="http://www.w3.org/2000/svg"><rect width="38" height="38" rx="8" fill="#FF6E30"/><path fill-rule="evenodd" clip-rule="evenodd" d="M19.965 12.436c-.333 0-.656.04-.965.118a9.12 9.12 0 011.996-4.76 8.67 8.67 0 017.637 8.609v6.326a9.165 9.165 0 01-8.53-4.687h3.828v-1.64a3.967 3.967 0 00-3.966-3.966z" fill="#fff"/><path fill-rule="evenodd" clip-rule="evenodd" d="M9.256 16.95A9.643 9.643 0 0119.52 7.328a10.105 10.105 0 00-2.598 7.379 2.985 2.985 0 00-1.014 2.245v.665h5.985-4.37c1.423 3.88 5.15 6.65 9.524 6.65.509 0 1.008-.037 1.497-.11v4.1h-6.65v-3.99h-5.986v3.99h-6.65V16.951z" fill="#fff"/><path d="M50.726 20.862c0-1.232.242-2.325.726-3.278.499-.953 1.166-1.687 2.002-2.2.85-.513 1.797-.77 2.838-.77.91 0 1.701.183 2.376.55.69.367 1.24.829 1.65 1.386v-1.738h3.102V27h-3.102v-1.782c-.396.572-.946 1.049-1.65 1.43-.69.367-1.489.55-2.398.55a5.235 5.235 0 01-2.816-.792c-.836-.528-1.503-1.269-2.002-2.222-.484-.968-.726-2.075-.726-3.322zm9.592.044c0-.748-.147-1.386-.44-1.914a3.01 3.01 0 00-1.188-1.232 3.115 3.115 0 00-1.606-.44c-.572 0-1.1.14-1.584.418-.484.279-.88.69-1.188 1.232-.293.528-.44 1.159-.44 1.892 0 .733.147 1.379.44 1.936.308.543.704.96 1.188 1.254a3.08 3.08 0 001.584.44 3.24 3.24 0 001.606-.418 3.2 3.2 0 001.188-1.232c.293-.543.44-1.188.44-1.936zm12.864-6.27c1.452 0 2.626.462 3.52 1.386.895.91 1.342 2.185 1.342 3.828V27h-3.08v-6.732c0-.968-.242-1.709-.726-2.222-.484-.528-1.144-.792-1.98-.792-.85 0-1.525.264-2.024.792-.484.513-.726 1.254-.726 2.222V27h-3.08V14.812h3.08v1.518c.41-.528.931-.939 1.562-1.232a4.84 4.84 0 012.112-.462zm11.377 2.706v5.896c0 .41.095.711.286.902.205.176.543.264 1.012.264h1.43V27h-1.936c-2.596 0-3.894-1.261-3.894-3.784v-5.874h-1.452v-2.53h1.452v-3.014h3.102v3.014h2.728v2.53H84.56zm10.355 9.856c-1.173 0-2.229-.257-3.168-.77a5.776 5.776 0 01-2.222-2.222c-.528-.953-.792-2.053-.792-3.3 0-1.247.272-2.347.814-3.3a5.73 5.73 0 012.266-2.2c.954-.528 2.017-.792 3.19-.792 1.174 0 2.237.264 3.19.792a5.58 5.58 0 012.244 2.2c.558.953.836 2.053.836 3.3 0 1.247-.286 2.347-.858 3.3a5.843 5.843 0 01-2.288 2.222c-.953.513-2.024.77-3.212.77zm0-2.684a3.21 3.21 0 001.562-.396c.499-.279.895-.69 1.188-1.232.294-.543.44-1.203.44-1.98 0-1.159-.308-2.046-.924-2.662-.601-.63-1.342-.946-2.222-.946-.88 0-1.62.315-2.222.946-.586.616-.88 1.503-.88 2.662s.286 2.053.858 2.684c.587.616 1.32.924 2.2.924zm14.03 2.684c-1.174 0-2.23-.257-3.168-.77a5.77 5.77 0 01-2.222-2.222c-.528-.953-.792-2.053-.792-3.3 0-1.247.271-2.347.814-3.3a5.725 5.725 0 012.266-2.2c.953-.528 2.016-.792 3.19-.792 1.173 0 2.236.264 3.19.792a5.588 5.588 0 012.244 2.2c.557.953.836 2.053.836 3.3 0 1.247-.286 2.347-.858 3.3a5.85 5.85 0 01-2.288 2.222c-.954.513-2.024.77-3.212.77zm0-2.684c.557 0 1.078-.132 1.562-.396.498-.279.894-.69 1.188-1.232.293-.543.44-1.203.44-1.98 0-1.159-.308-2.046-.924-2.662-.602-.63-1.342-.946-2.222-.946-.88 0-1.621.315-2.222.946-.587.616-.88 1.503-.88 2.662s.286 2.053.858 2.684c.586.616 1.32.924 2.2.924zm11.697-13.794V27h-3.08V10.72h3.08zm7.707 16.478c-.997 0-1.892-.176-2.684-.528-.792-.367-1.423-.858-1.892-1.474a3.748 3.748 0 01-.748-2.046h3.102c.059.47.286.858.682 1.166.411.308.917.462 1.518.462.587 0 1.041-.117 1.364-.352.337-.235.506-.535.506-.902 0-.396-.205-.69-.616-.88-.396-.205-1.034-.425-1.914-.66-.909-.22-1.657-.447-2.244-.682a3.986 3.986 0 01-1.496-1.078c-.411-.484-.616-1.137-.616-1.958 0-.675.191-1.29.572-1.848.396-.557.953-.997 1.672-1.32.733-.323 1.591-.484 2.574-.484 1.452 0 2.611.367 3.476 1.1.865.719 1.342 1.694 1.43 2.926h-2.948c-.044-.484-.249-.865-.616-1.144-.352-.293-.829-.44-1.43-.44-.557 0-.99.103-1.298.308a.99.99 0 00-.44.858c0 .41.205.726.616.946.411.205 1.049.418 1.914.638.88.22 1.606.447 2.178.682a3.72 3.72 0 011.474 1.1c.425.484.645 1.13.66 1.936 0 .704-.198 1.335-.594 1.892-.381.557-.939.997-1.672 1.32-.719.308-1.562.462-2.53.462zm8.688-.044c-.557 0-1.019-.169-1.386-.506a1.764 1.764 0 01-.528-1.298c0-.513.176-.939.528-1.276.367-.352.829-.528 1.386-.528.543 0 .99.176 1.342.528.352.337.528.763.528 1.276s-.176.946-.528 1.298c-.352.337-.799.506-1.342.506z" fill="#fff" fill-opacity=".9"/></svg>