<svg width="64" height="64" viewBox="0 0 44 45" fill="none" xmlns="http://www.w3.org/2000/svg"><path d="M.493 42.064c.428-6.325 2.482-13.29 9.24-18.264 4.345-3.198 8.11-4.184 12.125-5.237 2.344-.615 4.773-1.252 7.453-2.363-.978.933-5.624 3.113-9.128 4.57-3.496 1.453-7.181 2.984-10.25 5.03-6.156 4.104-8.66 11.245-9.44 16.264z" fill="url(#paint0_linear_16784_2)"/><path d="M.493 42.064c.428-6.325 2.482-13.29 9.24-18.264 4.345-3.198 8.11-4.184 12.125-5.237 2.344-.615 4.773-1.252 7.453-2.363-.978.933-5.624 3.113-9.128 4.57-3.496 1.453-7.181 2.984-10.25 5.03-6.156 4.104-8.66 11.245-9.44 16.264z" fill="url(#paint1_linear_16784_2)"/><path d="M38.435 19.742a13.86 13.86 0 01-2.568 1.991c-4.267 2.56-8.802 3.386-13.215 4.19-3.516.64-6.955 1.265-10.119 2.744C5.401 32 1.001 38.932.4 44.932v-.002c0-.458.007-.922.021-1.391.036-.744.113-1.568.24-2.446.942-4.935 3.503-11.447 9.272-15.293 2.443-1.628 5.275-2.93 8.092-4.127 2.478-.813 4.71-1.32 6.838-1.802 3.348-.759 6.435-1.459 9.804-3.204 7.068-3.663 8.92-11.19 8.422-15.617 1.057 5.61.63 12.51-4.654 18.692z" fill="url(#paint2_linear_16784_2)"/><path d="M38.435 19.742a13.859 13.859 0 01-2.568 1.991c-4.267 2.56-8.802 3.386-13.215 4.19-3.516.64-6.955 1.265-10.119 2.744-4.102 1.917-7.3 5.024-9.391 8.46 1.845-2.593 4.656-5.49 8.125-6.594 3.384-1.077 6.613-1.188 9.966-1.303.962-.034 1.933-.067 2.922-.124 2.664-.97 5.456-2.275 8.312-4.173 2.461-1.635 4.422-3.382 5.968-5.191z" fill="url(#paint3_linear_16784_2)"/><path d="M38.435 19.742a13.859 13.859 0 01-2.568 1.991c-4.267 2.56-8.802 3.386-13.215 4.19-3.516.64-6.955 1.265-10.119 2.744-4.102 1.917-7.3 5.024-9.391 8.46 1.845-2.593 4.656-5.49 8.125-6.594 3.384-1.077 6.613-1.188 9.966-1.303.962-.034 1.933-.067 2.922-.124 2.664-.97 5.456-2.275 8.312-4.173 2.461-1.635 4.422-3.382 5.968-5.191z" fill="url(#paint4_linear_16784_2)"/><path d="M43.089 1.05a21.522 21.522 0 00-.022-.117c-.973 7.012-4.293 10.068-8.867 12.8a37.454 37.454 0 01-4.889 2.467c-.978.934-5.624 3.113-9.128 4.57h-.001c-.713.297-1.434.596-2.157.903 2.478-.813 4.71-1.32 6.838-1.802 3.348-.759 6.435-1.459 9.804-3.204 7.068-3.663 8.92-11.19 8.422-15.617z" fill="url(#paint5_linear_16784_2)"/><path d="M43.089 1.05a21.522 21.522 0 00-.022-.117c-.973 7.012-4.293 10.068-8.867 12.8a37.454 37.454 0 01-4.889 2.467c-.978.934-5.624 3.113-9.128 4.57h-.001c-.713.297-1.434.596-2.157.903 2.478-.813 4.71-1.32 6.838-1.802 3.348-.759 6.435-1.459 9.804-3.204 7.068-3.663 8.92-11.19 8.422-15.617z" fill="url(#paint6_linear_16784_2)"/><defs><linearGradient id="paint0_linear_16784_2" x1="29.333" y1="15" x2="-3.2" y2="43.933" gradientUnits="userSpaceOnUse"><stop stop-color="#005FC6"/><stop offset=".28" stop-color="#23A4DF"/><stop offset=".465" stop-color="#3AC2B7"/><stop offset=".641" stop-color="#60EC7A"/><stop offset=".819" stop-color="#CFFDBD"/><stop offset="1" stop-color="#D0FCB6"/></linearGradient><linearGradient id="paint1_linear_16784_2" x1="22.733" y1="20.533" x2="19.933" y2="18" gradientUnits="userSpaceOnUse"><stop stop-color="#0061CB"/><stop offset="1" stop-color="#067EEA" stop-opacity="0"/></linearGradient><linearGradient id="paint2_linear_16784_2" x1="43.2" y1="1" x2=".4" y2="44.867" gradientUnits="userSpaceOnUse"><stop stop-color="#8E55F1"/><stop offset=".141" stop-color="#8B48DF"/><stop offset=".275" stop-color="#E04DD9"/><stop offset=".492" stop-color="#F496C8"/><stop offset=".633" stop-color="#FAD2BA"/><stop offset=".857" stop-color="#FEF7E5"/><stop offset="1" stop-color="#FFF5BF"/></linearGradient><linearGradient id="paint3_linear_16784_2" x1="39" y1="19.333" x2="4.067" y2="35.133" gradientUnits="userSpaceOnUse"><stop stop-color="#F41A73"/><stop offset=".4" stop-color="#FC50A3"/><stop offset=".585" stop-color="#FE9485"/><stop offset=".703" stop-color="#FFAF88"/><stop offset="1" stop-color="#FFC385"/></linearGradient><linearGradient id="paint4_linear_16784_2" x1="26.4" y1="24.2" x2="26.467" y2="27.4" gradientUnits="userSpaceOnUse"><stop stop-color="#9B0008"/><stop offset="1" stop-color="#EA115A" stop-opacity="0"/></linearGradient><linearGradient id="paint5_linear_16784_2" x1="43.2" y1="4.6" x2="11.667" y2="25.2" gradientUnits="userSpaceOnUse"><stop stop-color="#231283"/><stop offset=".363" stop-color="#7053C6"/><stop offset=".466" stop-color="#7272DB"/><stop offset=".634" stop-color="#399EE9"/><stop offset="1" stop-color="#00CFFF"/></linearGradient><linearGradient id="paint6_linear_16784_2" x1="35.333" y1="15" x2="36.733" y2="16.8" gradientUnits="userSpaceOnUse"><stop stop-color="#3F259D" stop-opacity="0"/><stop offset="1" stop-color="#412DAA"/></linearGradient></defs></svg>