<svg width="36" height="36" fill="none" xmlns="http://www.w3.org/2000/svg"><path d="M29.45 11.996c.019.262.019.523.019.784 0 7.988-6.08 17.192-17.19 17.192-3.423 0-6.603-.992-9.279-2.714.486.056.954.075 1.46.075a12.107 12.107 0 007.501-2.581 6.054 6.054 0 01-5.65-4.19c.373.056.748.093 1.141.093.542 0 1.086-.075 1.591-.205A6.04 6.04 0 014.2 14.52v-.075c.805.449 1.74.73 2.73.767a6.034 6.034 0 01-2.695-5.031c0-1.122.299-2.151.822-3.048a17.186 17.186 0 0012.46 6.322 6.866 6.866 0 01-.15-1.384 6.039 6.039 0 016.041-6.042c1.74 0 3.311.729 4.415 1.908a11.935 11.935 0 003.834-1.46A6.03 6.03 0 0129 9.807a12.11 12.11 0 003.478-.936 12.968 12.968 0 01-3.029 3.125z" fill="#fff" fill-opacity=".78"/></svg>